<mxfile host="app.diagrams.net" modified="2021-07-25T16:30:19.353Z" agent="5.0 (Windows NT 10.0; Win64; x64) AppleWebKit/537.36 (KHTML, like Gecko) Chrome/92.0.4515.107 Safari/537.36" etag="aaBAqm9OAH82UbRjdx8y" version="14.9.2" type="github">
  <diagram id="C5RBs43oDa-KdzZeNtuy" name="Page-1">
    <mxGraphModel dx="865" dy="408" grid="1" gridSize="10" guides="1" tooltips="1" connect="1" arrows="1" fold="1" page="1" pageScale="1" pageWidth="827" pageHeight="1169" math="0" shadow="0">
      <root>
        <mxCell id="WIyWlLk6GJQsqaUBKTNV-0" />
        <mxCell id="WIyWlLk6GJQsqaUBKTNV-1" parent="WIyWlLk6GJQsqaUBKTNV-0" />
        <mxCell id="riWhL1Q0QP4gFjlR55tl-53" value="" style="edgeStyle=orthogonalEdgeStyle;rounded=0;orthogonalLoop=1;jettySize=auto;html=1;entryX=0.5;entryY=0;entryDx=0;entryDy=0;" edge="1" parent="WIyWlLk6GJQsqaUBKTNV-1" source="riWhL1Q0QP4gFjlR55tl-7" target="riWhL1Q0QP4gFjlR55tl-63">
          <mxGeometry relative="1" as="geometry">
            <mxPoint x="440" y="227" as="targetPoint" />
          </mxGeometry>
        </mxCell>
        <mxCell id="riWhL1Q0QP4gFjlR55tl-7" value="오픈뱅킹 서비스" style="rounded=1;whiteSpace=wrap;html=1;" vertex="1" parent="WIyWlLk6GJQsqaUBKTNV-1">
          <mxGeometry x="380" y="140" width="120" height="40" as="geometry" />
        </mxCell>
        <mxCell id="riWhL1Q0QP4gFjlR55tl-51" value="" style="edgeStyle=orthogonalEdgeStyle;rounded=0;orthogonalLoop=1;jettySize=auto;html=1;" edge="1" parent="WIyWlLk6GJQsqaUBKTNV-1" source="riWhL1Q0QP4gFjlR55tl-8" target="riWhL1Q0QP4gFjlR55tl-7">
          <mxGeometry relative="1" as="geometry" />
        </mxCell>
        <mxCell id="riWhL1Q0QP4gFjlR55tl-8" value="index화면" style="rounded=1;whiteSpace=wrap;html=1;" vertex="1" parent="WIyWlLk6GJQsqaUBKTNV-1">
          <mxGeometry x="380" y="50" width="120" height="40" as="geometry" />
        </mxCell>
        <mxCell id="riWhL1Q0QP4gFjlR55tl-54" style="edgeStyle=orthogonalEdgeStyle;rounded=0;orthogonalLoop=1;jettySize=auto;html=1;entryX=1;entryY=0.5;entryDx=0;entryDy=0;exitX=0.5;exitY=0;exitDx=0;exitDy=0;" edge="1" parent="WIyWlLk6GJQsqaUBKTNV-1" source="riWhL1Q0QP4gFjlR55tl-26" target="riWhL1Q0QP4gFjlR55tl-8">
          <mxGeometry relative="1" as="geometry">
            <Array as="points">
              <mxPoint x="667" y="70" />
            </Array>
          </mxGeometry>
        </mxCell>
        <mxCell id="riWhL1Q0QP4gFjlR55tl-61" value="" style="edgeStyle=orthogonalEdgeStyle;rounded=0;orthogonalLoop=1;jettySize=auto;html=1;" edge="1" parent="WIyWlLk6GJQsqaUBKTNV-1" source="riWhL1Q0QP4gFjlR55tl-26" target="riWhL1Q0QP4gFjlR55tl-60">
          <mxGeometry relative="1" as="geometry" />
        </mxCell>
        <mxCell id="riWhL1Q0QP4gFjlR55tl-26" value="개인정보처리&lt;br&gt;이용약관" style="rhombus;whiteSpace=wrap;html=1;shadow=0;fontFamily=Helvetica;fontSize=12;align=center;strokeWidth=1;spacing=6;spacingTop=-4;" vertex="1" parent="WIyWlLk6GJQsqaUBKTNV-1">
          <mxGeometry x="607" y="220" width="120" height="87" as="geometry" />
        </mxCell>
        <mxCell id="riWhL1Q0QP4gFjlR55tl-103" value="" style="edgeStyle=orthogonalEdgeStyle;rounded=0;orthogonalLoop=1;jettySize=auto;html=1;" edge="1" parent="WIyWlLk6GJQsqaUBKTNV-1" source="riWhL1Q0QP4gFjlR55tl-60" target="riWhL1Q0QP4gFjlR55tl-76">
          <mxGeometry relative="1" as="geometry" />
        </mxCell>
        <mxCell id="riWhL1Q0QP4gFjlR55tl-60" value="이용약관 업데이트&lt;br&gt;(agreement=&#39;Y&#39;)" style="rounded=1;whiteSpace=wrap;html=1;" vertex="1" parent="WIyWlLk6GJQsqaUBKTNV-1">
          <mxGeometry x="607" y="350" width="120" height="40" as="geometry" />
        </mxCell>
        <mxCell id="riWhL1Q0QP4gFjlR55tl-65" value="" style="edgeStyle=orthogonalEdgeStyle;rounded=0;orthogonalLoop=1;jettySize=auto;html=1;" edge="1" parent="WIyWlLk6GJQsqaUBKTNV-1" source="riWhL1Q0QP4gFjlR55tl-63" target="riWhL1Q0QP4gFjlR55tl-26">
          <mxGeometry relative="1" as="geometry" />
        </mxCell>
        <mxCell id="riWhL1Q0QP4gFjlR55tl-80" value="" style="edgeStyle=orthogonalEdgeStyle;rounded=0;orthogonalLoop=1;jettySize=auto;html=1;" edge="1" parent="WIyWlLk6GJQsqaUBKTNV-1" source="riWhL1Q0QP4gFjlR55tl-63" target="riWhL1Q0QP4gFjlR55tl-76">
          <mxGeometry relative="1" as="geometry" />
        </mxCell>
        <mxCell id="riWhL1Q0QP4gFjlR55tl-63" value="오픈뱅킹&lt;br&gt;동의여부" style="rhombus;whiteSpace=wrap;html=1;shadow=0;fontFamily=Helvetica;fontSize=12;align=center;strokeWidth=1;spacing=6;spacingTop=-4;" vertex="1" parent="WIyWlLk6GJQsqaUBKTNV-1">
          <mxGeometry x="380" y="220" width="120" height="87" as="geometry" />
        </mxCell>
        <mxCell id="riWhL1Q0QP4gFjlR55tl-72" value="No(agreement=&#39;N&#39;)" style="text;html=1;resizable=0;autosize=1;align=center;verticalAlign=middle;points=[];fillColor=none;strokeColor=none;rounded=0;" vertex="1" parent="WIyWlLk6GJQsqaUBKTNV-1">
          <mxGeometry x="490" y="230" width="120" height="20" as="geometry" />
        </mxCell>
        <mxCell id="riWhL1Q0QP4gFjlR55tl-73" value="No(동의하지 않음)" style="text;html=1;resizable=0;autosize=1;align=center;verticalAlign=middle;points=[];fillColor=none;strokeColor=none;rounded=0;" vertex="1" parent="WIyWlLk6GJQsqaUBKTNV-1">
          <mxGeometry x="673" y="200" width="110" height="20" as="geometry" />
        </mxCell>
        <mxCell id="riWhL1Q0QP4gFjlR55tl-74" value="Yes(동의)" style="text;html=1;resizable=0;autosize=1;align=center;verticalAlign=middle;points=[];fillColor=none;strokeColor=none;rounded=0;" vertex="1" parent="WIyWlLk6GJQsqaUBKTNV-1">
          <mxGeometry x="673" y="320" width="70" height="20" as="geometry" />
        </mxCell>
        <mxCell id="riWhL1Q0QP4gFjlR55tl-75" value="Yes(agreement=&#39;Y&#39;)" style="text;html=1;resizable=0;autosize=1;align=center;verticalAlign=middle;points=[];fillColor=none;strokeColor=none;rounded=0;" vertex="1" parent="WIyWlLk6GJQsqaUBKTNV-1">
          <mxGeometry x="440" y="320" width="120" height="20" as="geometry" />
        </mxCell>
        <mxCell id="riWhL1Q0QP4gFjlR55tl-86" value="" style="edgeStyle=orthogonalEdgeStyle;rounded=0;orthogonalLoop=1;jettySize=auto;html=1;" edge="1" parent="WIyWlLk6GJQsqaUBKTNV-1" source="riWhL1Q0QP4gFjlR55tl-76" target="riWhL1Q0QP4gFjlR55tl-84">
          <mxGeometry relative="1" as="geometry">
            <Array as="points">
              <mxPoint x="440" y="400" />
              <mxPoint x="440" y="400" />
            </Array>
          </mxGeometry>
        </mxCell>
        <mxCell id="riWhL1Q0QP4gFjlR55tl-76" value="오픈뱅킹 계좌조회" style="rounded=1;whiteSpace=wrap;html=1;" vertex="1" parent="WIyWlLk6GJQsqaUBKTNV-1">
          <mxGeometry x="380" y="350" width="120" height="40" as="geometry" />
        </mxCell>
        <mxCell id="riWhL1Q0QP4gFjlR55tl-84" value="SSN" style="shape=parallelogram;html=1;strokeWidth=2;perimeter=parallelogramPerimeter;whiteSpace=wrap;rounded=1;arcSize=12;size=0.23;" vertex="1" parent="WIyWlLk6GJQsqaUBKTNV-1">
          <mxGeometry x="380" y="434" width="100" height="60" as="geometry" />
        </mxCell>
        <mxCell id="riWhL1Q0QP4gFjlR55tl-88" value="JBMorgan" style="strokeWidth=2;html=1;shape=mxgraph.flowchart.database;whiteSpace=wrap;" vertex="1" parent="WIyWlLk6GJQsqaUBKTNV-1">
          <mxGeometry x="220" y="544.5" width="60" height="60" as="geometry" />
        </mxCell>
        <mxCell id="riWhL1Q0QP4gFjlR55tl-89" value="SeJin" style="strokeWidth=2;html=1;shape=mxgraph.flowchart.database;whiteSpace=wrap;" vertex="1" parent="WIyWlLk6GJQsqaUBKTNV-1">
          <mxGeometry x="300" y="544.5" width="60" height="60" as="geometry" />
        </mxCell>
        <mxCell id="riWhL1Q0QP4gFjlR55tl-91" value="DonJo" style="strokeWidth=2;html=1;shape=mxgraph.flowchart.database;whiteSpace=wrap;" vertex="1" parent="WIyWlLk6GJQsqaUBKTNV-1">
          <mxGeometry x="380" y="544.5" width="60" height="60" as="geometry" />
        </mxCell>
        <mxCell id="riWhL1Q0QP4gFjlR55tl-92" value="YG Bank" style="strokeWidth=2;html=1;shape=mxgraph.flowchart.database;whiteSpace=wrap;" vertex="1" parent="WIyWlLk6GJQsqaUBKTNV-1">
          <mxGeometry x="460" y="540" width="60" height="64.5" as="geometry" />
        </mxCell>
        <mxCell id="riWhL1Q0QP4gFjlR55tl-95" value="" style="endArrow=classic;html=1;" edge="1" parent="WIyWlLk6GJQsqaUBKTNV-1">
          <mxGeometry width="50" height="50" relative="1" as="geometry">
            <mxPoint x="440" y="495" as="sourcePoint" />
            <mxPoint x="440" y="540" as="targetPoint" />
            <Array as="points">
              <mxPoint x="440" y="505" />
            </Array>
          </mxGeometry>
        </mxCell>
        <mxCell id="riWhL1Q0QP4gFjlR55tl-97" value="" style="endArrow=classic;html=1;entryX=0.5;entryY=1;entryDx=0;entryDy=0;" edge="1" parent="WIyWlLk6GJQsqaUBKTNV-1" target="riWhL1Q0QP4gFjlR55tl-98">
          <mxGeometry width="50" height="50" relative="1" as="geometry">
            <mxPoint x="300" y="544" as="sourcePoint" />
            <mxPoint x="300" y="500" as="targetPoint" />
          </mxGeometry>
        </mxCell>
        <mxCell id="riWhL1Q0QP4gFjlR55tl-101" value="" style="edgeStyle=orthogonalEdgeStyle;rounded=0;orthogonalLoop=1;jettySize=auto;html=1;" edge="1" parent="WIyWlLk6GJQsqaUBKTNV-1" source="riWhL1Q0QP4gFjlR55tl-98" target="riWhL1Q0QP4gFjlR55tl-100">
          <mxGeometry relative="1" as="geometry" />
        </mxCell>
        <mxCell id="riWhL1Q0QP4gFjlR55tl-98" value="오픈뱅킹&lt;br&gt;계좌 정보" style="shape=parallelogram;html=1;strokeWidth=2;perimeter=parallelogramPerimeter;whiteSpace=wrap;rounded=1;arcSize=12;size=0.23;" vertex="1" parent="WIyWlLk6GJQsqaUBKTNV-1">
          <mxGeometry x="250" y="434" width="100" height="60" as="geometry" />
        </mxCell>
        <mxCell id="riWhL1Q0QP4gFjlR55tl-100" value="오픈뱅킹 계좌 정보&lt;br&gt;&amp;nbsp;출력" style="rounded=1;whiteSpace=wrap;html=1;" vertex="1" parent="WIyWlLk6GJQsqaUBKTNV-1">
          <mxGeometry x="240" y="350" width="120" height="40" as="geometry" />
        </mxCell>
      </root>
    </mxGraphModel>
  </diagram>
</mxfile>
